{"accessors" : [{"bufferView" : 0, "byteOffset" : 0, "componentType" : 5123, "count" : 54780, "type" : "SCALAR", "max" : [54776], "min" : [0]}, {"bufferView" : 1, "byteOffset" : 0, "componentType" : 5126, "count" : 54777, "type" : "VEC3", "max" : [11.512327194213867, 21.183116912841797, 12.455291748046875], "min" : [-11.512327194213867, -21.183116912841797, -13.510171890258789], "name" : "POSITION"}, {"bufferView" : 1, "byteOffset" : 12, "componentType" : 5126, "count" : 54777, "type" : "VEC3", "max" : [1.000003457069397, 1.000000238418579, 1.0000042915344238], "min" : [-0.9999961256980896, -0.9999780654907227, -1.0000030994415283], "name" : "NORMAL"}], "asset" : {"generator" : "Aspose.3D 23.2", "version" : "2.0"}, "buffers" : [{"uri" : "data:application/octet-stream;base64,", "byteLength" : 1424288}], "bufferViews" : [{"buffer" : 0, "byteOffset" : 0, "byteLength" : 109560, "target" : 34963}, {"buffer" : 0, "byteOffset" : 109564, "byteLength" : 1314720, "byteStride" : 24, "target" : 34962}], "meshes" : [{"primitives" : [{"attributes" : {"POSITION" : 1, "NORMAL" : 2}, "indices" : 0, "mode" : 4}], "name" : ""}], "nodes" : [{"mesh" : 0, "name" : ""}], "scene" : 0, "scenes" : [{"nodes" : [0]}]}