{
  "accessors": [
    {
      "bufferView": 2,
      "componentType": 5126,
      "count": 550,
      "max": [
        55.01567459106445,
        47.636260986328125,
        80.21392059326172
      ],
      "min": [
        -55.792236328125,
        -52.96954345703125,
        -5.146966457366943
      ],
      "type": "VEC3"
    },
    {
      "bufferView": 2,
      "byteOffset": 6600,
      "componentType": 5126,
      "count": 550,
      "max": [
        0.9997445344924927,
        0.9995664954185486,
        0.9990729689598083
      ],
      "min": [
        -0.998979389667511,
        -0.999359667301178,
        -0.9994237422943115
      ],
      "type": "VEC3"
    },
    {
      "bufferView": 1,
      "componentType": 5126,
      "count": 550,
      "max": [
        0.24719999730587006,
        0.9805219173431396
      ],
      "min": [
        0.00279999990016222,
        0.5020999908447266
      ],
      "type": "VEC2"
    },
    {
      "bufferView": 1,
      "byteOffset": 4400,
      "componentType": 5126,
      "count": 550,
      "max": [
        0.24719999730587006,
        0.9805219173431396
      ],
      "min": [
        0.00279999990016222,
        0.5020999908447266
      ],
      "type": "VEC2"
    },
    {
      "bufferView": 1,
      "byteOffset": 8800,
      "componentType": 5126,
      "count": 550,
      "max": [
        0.24719999730587006,
        0.9805219173431396
      ],
      "min": [
        0.00279999990016222,
        0.5020999908447266
      ],
      "type": "VEC2"
    },
    {
      "bufferView": 1,
      "byteOffset": 13200,
      "componentType": 5126,
      "count": 550,
      "max": [
        0.24719999730587006,
        0.9805219173431396
      ],
      "min": [
        0.00279999990016222,
        0.5020999908447266
      ],
      "type": "VEC2"
    },
    {
      "bufferView": 1,
      "byteOffset": 17600,
      "componentType": 5126,
      "count": 550,
      "max": [
        0.24719999730587006,
        0.9805219173431396
      ],
      "min": [
        0.00279999990016222,
        0.5020999908447266
      ],
      "type": "VEC2"
    },
    {
      "bufferView": 0,
      "componentType": 5125,
      "count": 2184,
      "type": "SCALAR"
    },
    {
      "bufferView": 2,
      "byteOffset": 13200,
      "componentType": 5126,
      "count": 519,
      "max": [
        100.46351623535156,
        114.25817108154297,
        66.15505981445313
      ],
      "min": [
        -92.38774108886719,
        -55.60875701904297,
        -29.974397659301758
      ],
      "type": "VEC3"
    },
    {
      "bufferView": 2,
      "byteOffset": 19428,
      "componentType": 5126,
      "count": 519,
      "max": [
        0.8767726421356201,
        0.8851702213287354,
        0.9985307455062866
      ],
      "min": [
        -0.9537650346755981,
        -0.8699496984481812,
        -0.3392864167690277
      ],
      "type": "VEC3"
    },
    {
      "bufferView": 1,
      "byteOffset": 22000,
      "componentType": 5126,
      "count": 519,
      "max": [
        0.9764949083328247,
        0.9811927080154419
      ],
      "min": [
        0.005504081025719643,
        0.008010484278202057
      ],
      "type": "VEC2"
    },
    {
      "bufferView": 1,
      "byteOffset": 26152,
      "componentType": 5126,
      "count": 519,
      "max": [
        0.9764949083328247,
        0.9811927080154419
      ],
      "min": [
        0.005504081025719643,
        0.008010484278202057
      ],
      "type": "VEC2"
    },
    {
      "bufferView": 1,
      "byteOffset": 30304,
      "componentType": 5126,
      "count": 519,
      "max": [
        0.9764949083328247,
        0.9811927080154419
      ],
      "min": [
        0.005504081025719643,
        0.008010484278202057
      ],
      "type": "VEC2"
    },
    {
      "bufferView": 1,
      "byteOffset": 34456,
      "componentType": 5126,
      "count": 519,
      "max": [
        0.9764949083328247,
        0.9811927080154419
      ],
      "min": [
        0.005504081025719643,
        0.008010484278202057
      ],
      "type": "VEC2"
    },
    {
      "bufferView": 1,
      "byteOffset": 38608,
      "componentType": 5126,
      "count": 519,
      "max": [
        0.9764949083328247,
        0.9811927080154419
      ],
      "min": [
        0.005504081025719643,
        0.008010484278202057
      ],
      "type": "VEC2"
    },
    {
      "bufferView": 0,
      "byteOffset": 8736,
      "componentType": 5125,
      "count": 2028,
      "type": "SCALAR"
    }
  ],
  "asset": {
    "extras": {
      "author": "alint (https://sketchfab.com/alint)",
      "license": "CC-BY-4.0 (http://creativecommons.org/licenses/by/4.0/)",
      "source": "https://sketchfab.com/3d-models/tropical-plant-3ee280726f1f496e9b2377d43b4cbb2d",
      "title": "Tropical Plant"
    },
    "generator": "Sketchfab-12.63.0",
    "version": "2.0"
  },
  "bufferViews": [
    {
      "buffer": 0,
      "byteLength": 16848,
      "name": "floatBufferViews",
      "target": 34963
    },
    {
      "buffer": 0,
      "byteLength": 42760,
      "byteOffset": 16848,
      "byteStride": 8,
      "name": "floatBufferViews",
      "target": 34962
    },
    {
      "buffer": 0,
      "byteLength": 25656,
      "byteOffset": 59608,
      "byteStride": 12,
      "name": "floatBufferViews",
      "target": 34962
    }
  ],
  "buffers": [
    {
      "byteLength": 85264,
      "uri": "scene.bin"
    }
  ],
  "extensionsRequired": [
    "KHR_materials_pbrSpecularGlossiness"
  ],
  "extensionsUsed": [
    "KHR_materials_pbrSpecularGlossiness"
  ],
  "images": [
    {
      "uri": "textures/tropical_plant_diffuse.png"
    },
    {
      "uri": "textures/tropical_plant_specularGlossiness.png"
    }
  ],
  "materials": [
    {
      "alphaMode": "BLEND",
      "doubleSided": true,
      "extensions": {
        "KHR_materials_pbrSpecularGlossiness": {
          "diffuseFactor": [
            1.0,
            1.0,
            1.0,
            1.0
          ],
          "diffuseTexture": {
            "index": 0
          },
          "glossinessFactor": 1.0,
          "specularFactor": [
            0.0,
            0.0,
            0.0
          ],
          "specularGlossinessTexture": {
            "index": 1
          }
        }
      },
      "name": "tropical_plant"
    }
  ],
  "meshes": [
    {
      "name": "trunk_tropical_plant_0",
      "primitives": [
        {
          "attributes": {
            "NORMAL": 1,
            "POSITION": 0,
            "TEXCOORD_0": 2,
            "TEXCOORD_1": 3,
            "TEXCOORD_2": 4,
            "TEXCOORD_3": 5,
            "TEXCOORD_4": 6
          },
          "indices": 7,
          "material": 0,
          "mode": 4
        }
      ]
    },
    {
      "name": "leaves_tropical_plant_0",
      "primitives": [
        {
          "attributes": {
            "NORMAL": 9,
            "POSITION": 8,
            "TEXCOORD_0": 10,
            "TEXCOORD_1": 11,
            "TEXCOORD_2": 12,
            "TEXCOORD_3": 13,
            "TEXCOORD_4": 14
          },
          "indices": 15,
          "material": 0,
          "mode": 4
        }
      ]
    }
  ],
  "nodes": [
    {
      "children": [
        1
      ],
      "matrix": [
        1.0,
        0.0,
        0.0,
        0.0,
        0.0,
        2.220446049250313e-16,
        -1.0,
        0.0,
        0.0,
        1.0,
        2.220446049250313e-16,
        0.0,
        0.0,
        0.0,
        0.0,
        1.0
      ],
      "name": "Sketchfab_model"
    },
    {
      "children": [
        2
      ],
      "matrix": [
        1.0,
        0.0,
        0.0,
        0.0,
        0.0,
        0.0,
        1.0,
        0.0,
        0.0,
        -1.0,
        0.0,
        0.0,
        0.0,
        0.0,
        0.0,
        1.0
      ],
      "name": "7d910dab59a049d3996af71d3828b651.fbx"
    },
    {
      "children": [
        3,
        6
      ],
      "name": "RootNode"
    },
    {
      "children": [
        4
      ],
      "matrix": [
        1.0,
        0.0,
        0.0,
        0.0,
        0.0,
        2.220446049250313e-16,
        -1.0,
        0.0,
        0.0,
        1.0,
        2.220446049250313e-16,
        0.0,
        0.0,
        0.0,
        0.0,
        1.0
      ],
      "name": "trunk"
    },
    {
      "children": [
        5
      ],
      "matrix": [
        1.0,
        0.0,
        -0.0,
        0.0,
        0.0,
        1.0,
        0.0,
        0.0,
        0.0,
        0.0,
        1.0,
        0.0,
        3.539867401123047,
        0.18736596405506134,
        0.17966651916503906,
        1.0
      ],
      "name": "Object_4"
    },
    {
      "mesh": 0,
      "name": "trunk_tropical_plant_0"
    },
    {
      "children": [
        7
      ],
      "matrix": [
        1.0,
        0.0,
        0.0,
        0.0,
        0.0,
        2.220446049250313e-16,
        -1.0,
        0.0,
        0.0,
        1.0,
        2.220446049250313e-16,
        0.0,
        0.0,
        0.0,
        0.0,
        1.0
      ],
      "name": "leaves"
    },
    {
      "children": [
        8
      ],
      "matrix": [
        1.0,
        0.0,
        -0.0,
        0.0,
        0.0,
        1.0,
        0.0,
        0.0,
        0.0,
        0.0,
        1.0,
        0.0,
        -0.43608689308166504,
        -35.32016372680664,
        27.887182235717773,
        1.0
      ],
      "name": "Object_7"
    },
    {
      "mesh": 1,
      "name": "leaves_tropical_plant_0"
    }
  ],
  "samplers": [
    {
      "magFilter": 9729,
      "minFilter": 9987,
      "wrapS": 10497,
      "wrapT": 10497
    }
  ],
  "scene": 0,
  "scenes": [
    {
      "name": "Sketchfab_Scene",
      "nodes": [
        0
      ]
    }
  ],
  "textures": [
    {
      "sampler": 0,
      "source": 0
    },
    {
      "sampler": 0,
      "source": 1
    }
  ]
}
