{
    "accessors": [
        {
            "bufferView": 2,
            "byteOffset": 0,
            "componentType": 5123,
            "count": 244824,
            "max": [
                41208
            ],
            "min": [
                0
            ],
            "name": "accessor_buffer_Plane.001_0",
            "type": "SCALAR"
        },
        {
            "bufferView": 0,
            "byteOffset": 0,
            "componentType": 5126,
            "count": 41209,
            "max": [
                1.0,
                0.03523733466863632,
                1.0
            ],
            "min": [
                -1.0,
                -0.03512778878211975,
                -1.0
            ],
            "name": "accessor_buffer_Plane.001_POSITION_0",
            "type": "VEC3"
        },
        {
            "bufferView": 1,
            "byteOffset": 0,
            "componentType": 5126,
            "count": 41209,
            "max": [
                0.7375103235244751,
                0.999969482421875,
                0.7039704322814941
            ],
            "min": [
                -0.7501144409179688,
                0.6300241351127625,
                -0.7109286785125732
            ],
            "name": "accessor_buffer_Plane.001_NORMAL_0",
            "type": "VEC3"
        }
    ],
    "asset": {
        "copyright": "",
        "generator": "blendergltf v1.2.0",
        "version": "2.0"
    },
    "bufferViews": [
        {
            "buffer": 0,
            "byteLength": 494508,
            "byteOffset": 0,
            "byteStride": 12,
            "name": "bufferView_buffer_Plane.001_POSITION_0",
            "target": 34962
        },
        {
            "buffer": 0,
            "byteLength": 494508,
            "byteOffset": 494508,
            "byteStride": 12,
            "name": "bufferView_buffer_Plane.001_NORMAL_0",
            "target": 34962
        },
        {
            "buffer": 0,
            "byteLength": 489648,
            "byteOffset": 989016,
            "name": "bufferView_buffer_Plane.001_0",
            "target": 34963
        }
    ],
    "buffers": [
        {
            "byteLength": 1478664,
            "name": "buffer_skin",
            "uri": "buffer_skin.bin"
        }
    ],
    "cameras": [
        {
            "name": "Camera",
            "perspective": {
                "aspectRatio": 1.703595982340029,
                "yfov": 0.5033799409866333,
                "zfar": 100.0,
                "znear": 0.10000000149011612
            },
            "type": "perspective"
        }
    ],
    "images": [
        {
            "name": "skin_texture1.jpeg",
            "uri": "skin_texture1.jpeg"
        }
    ],
    "materials": [
        {
            "alphaMode": "OPAQUE",
            "doubleSided": false,
            "emissiveFactor": [
                0.0,
                0.0,
                0.0
            ],
            "name": "Material",
            "pbrMetallicRoughness": {
                "baseColorFactor": [
                    0.5647115707397461,
                    0.23839758336544037,
                    0.054480284452438354,
                    1.0
                ],
                "baseColorTexture": {
                    "index": 0,
                    "texCoord": 0
                },
                "metallicFactor": 0.0,
                "roughnessFactor": 1.0
            }
        }
    ],
    "meshes": [
        {
            "name": "Plane.001",
            "primitives": [
                {
                    "attributes": {
                        "NORMAL": 2,
                        "POSITION": 1
                    },
                    "indices": 0,
                    "material": 0,
                    "mode": 4
                }
            ]
        }
    ],
    "nodes": [
        {
            "camera": 0,
            "name": "Camera",
            "rotation": [
                -0.09062843769788742,
                -0.8937962651252747,
                -0.2099730223417282,
                0.38578000664711
            ],
            "scale": [
                1.0,
                1.0,
                1.0
            ],
            "translation": [
                -7.481131553649902,
                5.34366512298584,
                -6.5076398849487305
            ]
        },
        {
            "name": "Lamp",
            "rotation": [
                -0.34203386306762695,
                -0.5232755541801453,
                -0.2841663062572479,
                0.7269423007965088
            ],
            "scale": [
                1.0,
                1.0,
                0.9999999403953552
            ],
            "translation": [
                -4.076245307922363,
                5.903861999511719,
                1.0054539442062378
            ]
        },
        {
            "mesh": 0,
            "name": "Plane",
            "rotation": [
                0.0,
                0.0,
                0.0,
                1.0
            ],
            "scale": [
                7.660679817199707,
                5.569190979003906,
                5.569190979003906
            ],
            "translation": [
                0.0,
                0.0,
                0.0
            ]
        }
    ],
    "samplers": [
        {
            "magFilter": 9729,
            "minFilter": 9987,
            "name": "Texture.001",
            "wrapS": 10497,
            "wrapT": 10497
        }
    ],
    "scene": 0,
    "scenes": [
        {
            "extras": {
                "active_camera": 0,
                "background_color": [
                    0.05087608844041824,
                    0.05087608844041824,
                    0.05087608844041824
                ],
                "frames_per_second": 24
            },
            "name": "Scene",
            "nodes": [
                2,
                1,
                0
            ]
        }
    ],
    "textures": [
        {
            "name": "Texture.001",
            "sampler": 0,
            "source": 0
        }
    ]
}
